<svg width="49" height="41" viewBox="0 0 49 41" fill="none" xmlns="http://www.w3.org/2000/svg">
<path d="M3.0625 38.029C3.0625 39.6471 4.43105 40.9544 6.125 40.9544H42.875C44.5689 40.9544 45.9375 39.6471 45.9375 38.029V11.7012H3.0625V38.029ZM18.375 18.6489C18.375 18.0455 18.8918 17.5519 19.5234 17.5519H29.4766C30.1082 17.5519 30.625 18.0455 30.625 18.6489V19.3802C30.625 19.9835 30.1082 20.4772 29.4766 20.4772H19.5234C18.8918 20.4772 18.375 19.9835 18.375 19.3802V18.6489ZM45.9375 0H3.0625C1.36855 0 0 1.30725 0 2.92531V7.31328C0 8.11774 0.689062 8.77593 1.53125 8.77593H47.4688C48.3109 8.77593 49 8.11774 49 7.31328V2.92531C49 1.30725 47.6314 0 45.9375 0Z" fill="white"/>
</svg>
